<svg width="180" height="151" viewBox="0 0 180 151" fill="none" xmlns="http://www.w3.org/2000/svg">
<path fill-rule="evenodd" clip-rule="evenodd" d="M15.8876 128.907L0.718193 87.8578C0.0883267 86.148 -0.129147 84.4007 0.0733155 82.706C0.275778 81.0188 0.890652 79.3839 1.92544 77.8693C2.96024 76.362 4.27257 75.1922 5.78715 74.3973C6.22206 74.1723 6.66448 73.9698 7.12188 73.8124L7.13688 57.8098C7.13688 56.595 8.11919 55.6127 9.33389 55.6127H11.561V36.0546C11.561 34.8398 12.5433 33.8575 13.758 33.8575H19.0744V18.0797C19.0744 16.8649 20.0567 15.8826 21.2714 15.8826H28.725V2.19712C28.725 0.9823 29.7073 0 30.922 0C32.1367 0 33.119 0.982357 33.119 2.19712V15.8826H40.5725C41.7872 15.8826 42.7695 16.8649 42.7695 18.0797V33.8575H48.0335C49.1208 33.8575 50.0207 34.6449 50.2006 35.6797L54.5571 55.6045H61.5833C62.7981 55.6045 63.7803 56.5868 63.7803 57.8016V74.1566L83.1781 86.3499H88.4272V39.8275C88.4272 38.6126 89.4095 37.6303 90.6242 37.6303H123.093C124.307 37.6303 125.29 38.6127 125.29 39.8275V53.8729H139.334C140.549 53.8729 141.531 54.8552 141.531 56.07V70.1154H155.576C156.791 70.1154 157.773 71.0978 157.773 72.3125V86.358H168.983C170.731 86.358 172.358 86.7404 173.835 87.4753C175.305 88.2102 176.587 89.2825 177.637 90.6774C178.724 92.1172 179.526 93.7595 179.849 95.4917C180.149 97.1189 180.021 98.8062 179.301 100.456L166.651 129.267C167.694 130.024 168.706 130.977 169.696 132.109C170.49 133.024 170.393 134.411 169.478 135.206C168.563 136.001 167.176 135.904 166.381 134.989C164.252 132.544 162.092 131.322 159.888 131.322C157.623 131.322 155.148 132.567 152.449 135.056C149.457 138.468 146.21 140.17 142.708 140.17C139.304 140.17 135.832 138.528 132.285 135.251C132.188 135.176 132.105 135.086 132.023 134.996C129.893 132.552 127.734 131.329 125.529 131.329C123.265 131.329 120.79 132.574 118.091 135.064C115.099 138.476 111.852 140.178 108.35 140.178C104.946 140.178 101.474 138.536 97.9273 135.259C97.8298 135.184 97.7398 135.094 97.6648 135.004C95.5352 132.559 93.3681 131.337 91.1711 131.337C88.9065 131.337 86.4319 132.581 83.7326 135.071C80.7406 138.483 77.4938 140.185 73.992 140.185C70.5877 140.185 67.1159 138.543 63.569 135.266C63.4716 135.191 63.3891 135.101 63.3066 135.011C61.177 132.567 59.0099 131.344 56.8129 131.344C54.5483 131.344 52.0737 132.589 49.3743 135.079C46.3824 138.49 43.1356 140.193 39.6338 140.193C36.2295 140.193 32.7577 138.551 29.2108 135.274C29.1133 135.199 29.0309 135.109 28.9484 135.019C26.8187 132.574 24.6592 131.352 22.4547 131.352C20.1601 131.352 17.6481 132.626 14.9111 135.184C14.0263 136.008 12.6391 135.956 11.8142 135.071C10.9894 134.186 11.0419 132.799 11.9267 131.974C13.2464 130.699 14.5754 129.687 15.8876 128.907ZM11.5236 73.1758H59.3644V60.0077H11.5236V73.1758ZM14.8904 145.991C17.6274 143.434 20.1469 142.159 22.4339 142.159C24.6309 142.159 26.798 143.381 28.9276 145.826C29.0101 145.923 29.1001 146.006 29.1901 146.081C32.737 149.358 36.2163 151 39.6131 151C43.1223 151 46.3692 149.298 49.3536 145.886C52.053 143.396 54.5276 142.151 56.7921 142.151C58.9892 142.151 61.1562 143.374 63.2858 145.818C63.3683 145.916 63.4583 145.998 63.5483 146.073C67.0952 149.35 70.5745 150.993 73.9713 150.993C77.4805 150.993 80.7274 149.29 83.7118 145.878C86.4037 143.389 88.8858 142.144 91.1504 142.144C93.3474 142.144 95.5144 143.366 97.6441 145.811C97.7265 145.908 97.8165 145.991 97.9065 146.066C101.453 149.343 104.933 150.985 108.329 150.985C111.839 150.985 115.086 149.283 118.07 145.871C120.769 143.381 123.244 142.136 125.509 142.136C127.706 142.136 129.873 143.359 132.002 145.803C132.085 145.901 132.175 145.983 132.265 146.058C135.812 149.335 139.291 150.978 142.688 150.978C146.197 150.978 149.444 149.275 152.428 145.863C155.12 143.374 157.602 142.129 159.867 142.129C162.064 142.129 164.231 143.351 166.361 145.796C167.155 146.711 168.543 146.808 169.457 146.013C170.372 145.218 170.47 143.831 169.675 142.916C166.668 139.467 163.406 137.742 159.874 137.742C156.47 137.742 152.998 139.384 149.451 142.661C149.354 142.736 149.271 142.826 149.189 142.916C147.059 145.361 144.9 146.583 142.695 146.583C140.431 146.583 137.956 145.339 135.257 142.849C132.265 139.437 129.018 137.735 125.516 137.735C122.112 137.735 118.64 139.377 115.093 142.654C114.996 142.729 114.906 142.819 114.831 142.909C112.701 145.353 110.534 146.576 108.337 146.576C106.072 146.576 103.598 145.331 100.898 142.841C97.9064 139.43 94.6596 137.727 91.1578 137.727C87.7536 137.727 84.2817 139.369 80.7348 142.646C80.6374 142.721 80.5549 142.811 80.4724 142.901C78.3428 145.346 76.1757 146.568 73.9787 146.568C71.7141 146.568 69.2395 145.324 66.5401 142.834C63.5482 139.422 60.3014 137.72 56.7996 137.72C53.3953 137.72 49.9235 139.362 46.3766 142.639C46.2791 142.714 46.1967 142.804 46.1142 142.894C43.9845 145.338 41.8175 146.561 39.6205 146.561C37.3559 146.561 34.8813 145.316 32.1819 142.827C29.19 139.415 25.9432 137.712 22.4414 137.712C19.007 137.712 15.4977 139.384 11.9134 142.729C11.0286 143.554 10.9761 144.941 11.8009 145.826C12.6183 146.763 14.0054 146.816 14.8904 145.991ZM162.732 127.318L175.262 98.7107C175.607 97.9158 175.667 97.091 175.517 96.2811C175.329 95.2688 174.812 94.2564 174.115 93.319C173.477 92.4716 172.713 91.8267 171.85 91.3993C170.995 90.9718 170.013 90.7469 168.956 90.7469H82.5286V90.7394C82.1311 90.7394 81.7262 90.6344 81.3663 90.4019L60.9396 77.5638H10.8489C9.73167 77.5638 8.71183 77.8113 7.83456 78.2687C6.94224 78.7411 6.15489 79.446 5.53255 80.3533C4.91768 81.2457 4.55024 82.2206 4.43026 83.2105C4.31029 84.2228 4.44526 85.2876 4.83519 86.345L19.9372 127.214C20.7696 127.019 21.6019 126.921 22.4343 126.921C25.9436 126.921 29.1904 128.624 32.1748 132.036C34.8667 134.525 37.3488 135.77 39.6134 135.77C41.8104 135.77 43.9775 134.548 46.1071 132.103C46.1896 132.006 46.2795 131.923 46.3695 131.848C49.9164 128.571 53.3957 126.929 56.7925 126.929C60.3018 126.929 63.5486 128.631 66.5331 132.043C69.2249 134.533 71.707 135.778 73.9716 135.778C76.1686 135.778 78.3357 134.555 80.4653 132.111C80.5478 132.013 80.6378 131.931 80.7278 131.856C84.2746 128.579 87.754 126.936 91.1507 126.936C94.66 126.936 97.9068 128.639 100.891 132.051C103.583 134.54 106.065 135.785 108.33 135.785C110.527 135.785 112.694 134.563 114.824 132.118C114.906 132.021 114.996 131.938 115.086 131.863C118.633 128.586 122.112 126.944 125.509 126.944C129.018 126.944 132.265 128.646 135.249 132.058C137.949 134.548 140.423 135.793 142.688 135.793C144.885 135.793 147.052 134.57 149.182 132.126C149.264 132.028 149.354 131.946 149.444 131.871C152.991 128.594 156.47 126.951 159.867 126.951C160.857 126.936 161.802 127.063 162.732 127.318ZM66.0464 101.252C64.2843 101.252 62.6946 101.965 61.5397 103.12C60.3849 104.274 59.6726 105.872 59.6726 107.634C59.6726 109.396 60.3849 110.986 61.5397 112.141C62.6945 113.296 64.2917 114.008 66.0464 114.008C67.8086 114.008 69.3983 113.296 70.5606 112.141C71.7154 110.986 72.4277 109.389 72.4277 107.634C72.4277 105.872 71.7154 104.282 70.5606 103.12C69.3983 101.965 67.8086 101.252 66.0464 101.252ZM67.4486 106.224C67.0887 105.864 66.5938 105.639 66.0464 105.639C65.499 105.639 65.0041 105.864 64.6442 106.224C64.2843 106.584 64.0593 107.079 64.0593 107.626C64.0593 108.174 64.2843 108.669 64.6442 109.029C65.0041 109.389 65.499 109.614 66.0464 109.614C66.5938 109.614 67.0962 109.389 67.4486 109.029C67.8086 108.669 68.0335 108.174 68.0335 107.626C68.0335 107.079 67.8086 106.584 67.4486 106.224ZM38.9691 101.252C37.207 101.252 35.6173 101.965 34.4624 103.12C33.3077 104.274 32.5953 105.872 32.5953 107.634C32.5953 109.396 33.3076 110.986 34.4624 112.141C35.6172 113.296 37.2144 114.008 38.9691 114.008C40.7313 114.008 42.321 113.296 43.4758 112.141C44.6306 110.986 45.343 109.389 45.343 107.634C45.343 105.872 44.6306 104.282 43.4758 103.12C42.321 101.965 40.7313 101.252 38.9691 101.252ZM40.3713 106.224C40.0114 105.864 39.5165 105.639 38.9691 105.639C38.4217 105.639 37.9268 105.864 37.5669 106.224C37.207 106.584 36.982 107.079 36.982 107.626C36.982 108.174 37.207 108.669 37.5669 109.029C37.9268 109.389 38.4217 109.614 38.9691 109.614C39.5165 109.614 40.0114 109.389 40.3713 109.029C40.7313 108.669 40.9562 108.174 40.9562 107.626C40.9562 107.079 40.7313 106.584 40.3713 106.224ZM147.277 101.252C145.515 101.252 143.925 101.965 142.77 103.12C141.616 104.274 140.903 105.872 140.903 107.634C140.903 109.396 141.616 110.986 142.77 112.141C143.925 113.296 145.522 114.008 147.277 114.008C149.039 114.008 150.629 113.296 151.784 112.141C152.939 110.986 153.651 109.389 153.651 107.634C153.651 105.872 152.939 104.282 151.784 103.12C150.629 101.965 149.039 101.252 147.277 101.252ZM148.679 106.224C148.319 105.864 147.824 105.639 147.277 105.639C146.73 105.639 146.235 105.864 145.875 106.224C145.515 106.584 145.29 107.079 145.29 107.626C145.29 108.174 145.515 108.669 145.875 109.029C146.235 109.389 146.73 109.614 147.277 109.614C147.824 109.614 148.319 109.389 148.679 109.029C149.039 108.669 149.264 108.174 149.264 107.626C149.264 107.079 149.039 106.584 148.679 106.224ZM120.2 101.252C118.438 101.252 116.848 101.965 115.693 103.12C114.538 104.274 113.826 105.872 113.826 107.634C113.826 109.396 114.538 110.986 115.693 112.141C116.848 113.296 118.445 114.008 120.2 114.008C121.962 114.008 123.552 113.296 124.706 112.141C125.861 110.986 126.574 109.389 126.574 107.634C126.574 105.872 125.861 104.282 124.706 103.12C123.559 101.965 121.962 101.252 120.2 101.252ZM121.609 106.224C121.25 105.864 120.755 105.639 120.207 105.639C119.66 105.639 119.157 105.864 118.805 106.224C118.445 106.584 118.22 107.079 118.22 107.626C118.22 108.174 118.445 108.669 118.805 109.029C119.165 109.389 119.66 109.614 120.207 109.614C120.755 109.614 121.25 109.389 121.609 109.029C121.969 108.669 122.194 108.174 122.194 107.626C122.187 107.079 121.962 106.584 121.609 106.224ZM93.1223 101.252C91.3601 101.252 89.7704 101.965 88.6081 103.12C87.4533 104.274 86.741 105.872 86.741 107.634C86.741 109.396 87.4533 110.986 88.6081 112.141C89.7629 113.296 91.3601 114.008 93.1223 114.008C94.8845 114.008 96.4741 113.296 97.629 112.141C98.7838 110.986 99.4961 109.389 99.4961 107.634C99.4961 105.872 98.7838 104.282 97.629 103.12C96.4742 101.965 94.8845 101.252 93.1223 101.252ZM94.5245 106.224C94.1646 105.864 93.6697 105.639 93.1223 105.639C92.5749 105.639 92.08 105.864 91.7201 106.224C91.3601 106.584 91.1352 107.079 91.1352 107.626C91.1352 108.174 91.3601 108.669 91.7201 109.029C92.08 109.389 92.5749 109.614 93.1223 109.614C93.6697 109.614 94.1646 109.389 94.5245 109.029C94.8844 108.669 95.1094 108.174 95.1094 107.626C95.1094 107.079 94.8844 106.584 94.5245 106.224ZM109.027 42.0326V53.8809H120.874V42.0326H109.027ZM92.7924 53.8809H104.64V42.0326H92.7924V53.8809ZM125.269 58.2678V70.1161H137.116V58.2678H125.269ZM109.027 58.2678V70.1161H120.875V58.2678H109.027ZM92.7926 70.1161H104.64V58.2678H92.7926V70.1161ZM141.503 74.5106V86.3589H153.351V74.5106H141.503ZM125.269 74.5106V86.3589H137.117V74.5106H125.269ZM109.027 74.5106V86.3589H120.875V74.5106H109.027ZM92.7928 86.3589H104.641V74.5106H92.7928V86.3589ZM38.3619 20.2783H23.4624V33.8588H38.3619V20.2783ZM46.2504 38.2532H15.9415V55.6132H50.0378L46.2504 38.2532Z" fill="#383838"/>
</svg>
