<svg width="186" height="192" viewBox="0 0 186 192" fill="none" xmlns="http://www.w3.org/2000/svg">
<path d="M97.3835 47.8017C95.7668 47.84 94.3954 46.6065 94.2497 44.9898C94.1041 43.3731 95.2381 41.925 96.8394 41.6722L158.348 30.5012C161.796 29.3825 170.194 25.475 170.301 19.9278H170.293C170.378 18.9547 170.01 18.0123 169.297 17.3534C167.06 15.2923 161.528 15.1009 159.199 15.3308H159.191C158.609 15.392 158.019 15.2771 157.498 15.009L153.874 13.1778V13.1854C149.093 10.7719 143.615 10.1207 138.405 11.3389H138.343L39.9944 32.7383C38.3471 33.0601 36.738 32.0028 36.3857 30.3632C36.0256 28.7159 37.0523 27.0915 38.692 26.7008L136.986 5.32491C143.614 3.77721 150.578 4.60469 156.653 7.67708L159.519 9.10986C162.17 8.97194 169.341 8.98727 173.479 12.8029C175.486 14.657 176.574 17.2928 176.467 20.0204C176.268 31.2834 160.668 36.2329 159.994 36.4399C159.871 36.4782 159.749 36.5088 159.626 36.5242L97.9328 47.7489C97.7565 47.7872 97.5727 47.8026 97.3811 47.8026L97.3835 47.8017Z" fill="#383838"/>
<path d="M60.2533 52.9511C59.5484 52.9511 58.8282 52.9511 58.1079 52.9281H57.8627L19.3085 49.0972H19.3161C17.9983 48.967 16.9026 48.0092 16.6115 46.7145L13.9988 35.26C13.6234 33.5974 14.6654 31.9424 16.3204 31.567L23.4919 29.9273H23.4995C25.1392 29.5979 26.7481 30.6322 27.1237 32.2642C27.4991 33.8962 26.4954 35.5282 24.8712 35.9419L20.7031 36.8996L22.1282 43.1518L58.3385 46.7604C61.3497 46.8294 64.3607 46.7374 67.3566 46.4923C68.1994 46.362 69.0652 46.5842 69.7394 47.1129C70.4136 47.6339 70.8427 48.4231 70.9117 49.2736C70.9883 50.1317 70.6971 50.9746 70.1225 51.6105C69.5479 52.2464 68.7357 52.6065 67.8853 52.6218C65.4488 52.844 62.8812 52.9511 60.2533 52.9511Z" fill="#383838"/>
<path d="M17.025 37.6345C15.7071 37.6345 14.5349 36.7917 14.1134 35.5429L5.96122 11.6152C5.66241 10.7647 5.76201 9.82992 6.21407 9.05606C6.67379 8.27454 7.43997 7.7382 8.3287 7.5773L20.2429 5.41657C21.3156 5.21736 22.4037 5.60046 23.1161 6.42795L41.6578 27.6351C42.7841 28.9146 42.6539 30.8684 41.3743 31.9948C40.0871 33.1211 38.1334 32.9909 37.007 31.7113L19.6221 11.8066L12.9563 13.0172L19.9516 33.5515C20.5033 35.1682 19.6451 36.915 18.0361 37.4744C17.7143 37.5817 17.3695 37.6353 17.0324 37.6353L17.025 37.6345Z" fill="#383838"/>
<path d="M52.5919 70.0979C51.3813 70.1055 50.2856 69.4006 49.7876 68.2973C49.2819 67.2017 49.4658 65.9145 50.2626 64.995L78.2289 32.5703V32.578C79.3399 31.2831 81.2861 31.1452 82.581 32.2562C83.8682 33.3672 84.0061 35.321 82.8951 36.6083L60.0776 63.0427L70.8732 61.8091L111.252 29.4138C112.577 28.3488 114.523 28.5634 115.588 29.8889C116.653 31.2144 116.439 33.1606 115.113 34.2254L74.0443 67.1876C73.5923 67.5553 73.0406 67.7852 72.466 67.8465L52.9282 70.0837C52.8133 70.099 52.706 70.1067 52.5911 70.1067L52.5919 70.0979Z" fill="#383838"/>
<path d="M83.5611 123.608H43.275C41.574 123.608 40.1949 122.229 40.1949 120.528V84.3177C40.1949 82.6091 41.5741 81.23 43.275 81.23H83.5611C85.2544 81.2453 86.6259 82.6245 86.6259 84.3177V120.528C86.6259 122.221 85.2544 123.593 83.5611 123.608ZM46.3623 117.433H80.4581V87.3989H46.3623V117.433Z" fill="#383838"/>
<path d="M68.6816 98.0323H58.1618C56.4685 98.017 55.097 96.6379 55.097 94.937V84.3175C55.0664 83.4824 55.3805 82.6702 55.9628 82.065C56.5451 81.4597 57.342 81.1226 58.1848 81.1226C59.0199 81.1226 59.8244 81.4597 60.4067 82.065C60.989 82.6703 61.2955 83.4824 61.2648 84.3175V91.8569H65.6014V84.3175C65.5784 83.4824 65.8849 82.6702 66.4672 82.065C67.0495 81.4597 67.854 81.1226 68.6891 81.1226C69.5319 81.1226 70.3288 81.4597 70.911 82.065C71.4934 82.6703 71.8075 83.4824 71.7769 84.3175V94.937C71.7769 95.7645 71.4474 96.546 70.8727 97.1283C70.2904 97.703 69.5015 98.0323 68.6816 98.0323Z" fill="#383838"/>
<path d="M142.359 123.608H102.073C100.372 123.608 98.9932 122.229 98.9932 120.528V84.3177C98.9932 82.6091 100.372 81.23 102.073 81.23H142.359C143.179 81.23 143.961 81.5518 144.543 82.1341C145.125 82.7164 145.447 83.4979 145.447 84.3178V120.528C145.447 122.229 144.06 123.608 142.359 123.608ZM105.168 117.433H139.264V87.3989H105.168V117.433Z" fill="#383838"/>
<path d="M127.472 98.0323H116.952C115.244 98.0323 113.865 96.6455 113.865 94.937V84.3175C113.834 83.4824 114.148 82.6702 114.73 82.065C115.313 81.4597 116.109 81.1226 116.952 81.1226C117.787 81.1226 118.592 81.4597 119.174 82.065C119.757 82.6703 120.063 83.4824 120.032 84.3175V91.8569H124.384V84.3175C124.384 82.6089 125.764 81.2298 127.472 81.2298C129.181 81.2298 130.56 82.6089 130.56 84.3175V94.937C130.56 95.7568 130.238 96.546 129.656 97.1207C129.073 97.703 128.292 98.0323 127.472 98.0323Z" fill="#383838"/>
<path d="M52.5311 159.818H12.2527C11.4329 159.818 10.6514 159.488 10.0691 158.906C9.49442 158.331 9.16496 157.542 9.16496 156.722V120.52L9.17262 120.528C9.16496 119.708 9.49441 118.919 10.0691 118.344C10.6514 117.762 11.4329 117.432 12.2527 117.432H52.5311C53.3509 117.432 54.1401 117.762 54.7147 118.344C55.2971 118.919 55.6265 119.708 55.6265 120.528V156.73V156.722C55.6265 157.542 55.297 158.331 54.7147 158.906C54.1401 159.488 53.3509 159.818 52.5311 159.818ZM15.3401 153.642H49.4359V123.609H15.3401V153.642Z" fill="#383838"/>
<path d="M37.6515 134.235H27.1393C25.4384 134.227 24.0746 132.848 24.0746 131.147V120.528C24.0439 119.685 24.3581 118.873 24.9404 118.268C25.5227 117.67 26.3195 117.325 27.1623 117.325C27.9975 117.325 28.802 117.67 29.3842 118.268C29.9666 118.873 30.273 119.685 30.25 120.528V128.067H34.5866V120.528C34.556 119.685 34.8624 118.873 35.4447 118.268C36.0271 117.67 36.8315 117.325 37.6667 117.325C38.5095 117.325 39.3063 117.67 39.8886 118.268C40.4709 118.873 40.785 119.685 40.7544 120.528V131.147C40.7544 131.967 40.4249 132.756 39.8426 133.339C39.2603 133.913 38.4714 134.243 37.6515 134.235Z" fill="#383838"/>
<path d="M92.8172 159.819H52.5311C50.8378 159.803 49.4663 158.424 49.4663 156.723V120.521V120.528C49.4663 118.828 50.8378 117.448 52.5311 117.433H92.8172C93.6371 117.433 94.4186 117.763 95.0009 118.345C95.5832 118.92 95.905 119.709 95.905 120.529V156.731V156.723C95.905 157.543 95.5832 158.332 95.0009 158.907C94.4186 159.489 93.6371 159.819 92.8172 159.819ZM55.6262 153.643H89.7221V123.609H55.6262V153.643Z" fill="#383838"/>
<path d="M77.9299 134.235H67.4253C66.6055 134.235 65.8163 133.913 65.2416 133.331C64.6593 132.749 64.3375 131.967 64.3375 131.147V120.528C64.3069 119.685 64.621 118.873 65.2033 118.268C65.7856 117.67 66.5825 117.325 67.4253 117.325C68.2604 117.325 69.0649 117.67 69.6472 118.268C70.2295 118.873 70.536 119.685 70.5053 120.528V128.067H74.8419V120.528C74.8189 119.685 75.1254 118.873 75.7077 118.268C76.29 117.67 77.0945 117.325 77.9296 117.325C78.7724 117.325 79.5693 117.67 80.1515 118.268C80.7339 118.873 81.048 119.685 81.0173 120.528V131.147C81.0173 131.967 80.6956 132.749 80.1132 133.331C79.5309 133.913 78.7497 134.235 77.9299 134.235Z" fill="#383838"/>
<path d="M133.103 159.818H92.8172C91.9974 159.818 91.2159 159.488 90.6335 158.906C90.0589 158.331 89.7294 157.542 89.7371 156.722V120.52V120.528C89.7294 119.708 90.0589 118.919 90.6335 118.344C91.2159 117.762 91.9974 117.432 92.8172 117.432H133.103C133.916 117.432 134.705 117.762 135.279 118.344C135.862 118.919 136.184 119.708 136.184 120.528V156.73V156.722C136.184 157.542 135.862 158.331 135.279 158.906C134.705 159.488 133.916 159.818 133.103 159.818ZM95.9124 153.642H130.008V123.609H95.9124V153.642Z" fill="#383838"/>
<path d="M118.216 134.235H107.704C106.884 134.235 106.102 133.913 105.52 133.331C104.945 132.749 104.616 131.967 104.616 131.147V120.528C104.593 119.685 104.9 118.873 105.482 118.268C106.064 117.67 106.869 117.325 107.704 117.325C108.547 117.325 109.343 117.67 109.926 118.268C110.508 118.873 110.822 119.685 110.791 120.528V128.067H115.128V120.528C115.097 119.685 115.412 118.873 115.994 118.268C116.576 117.67 117.373 117.325 118.216 117.325C119.051 117.325 119.855 117.67 120.438 118.268C121.02 118.873 121.326 119.685 121.304 120.528V131.147C121.304 131.967 120.974 132.749 120.392 133.331C119.817 133.913 119.028 134.235 118.208 134.235H118.216Z" fill="#383838"/>
<path d="M173.382 159.819H133.103C131.402 159.803 130.031 158.424 130.039 156.723V120.521V120.528C130.031 118.828 131.402 117.448 133.103 117.433H173.382C174.202 117.433 174.983 117.763 175.565 118.345C176.148 118.92 176.47 119.709 176.47 120.529V156.731V156.723C176.47 157.543 176.148 158.332 175.565 158.907C174.983 159.489 174.202 159.819 173.382 159.819ZM136.191 153.643H170.287V123.609H136.191V153.643Z" fill="#383838"/>
<path d="M158.494 134.235H147.982C147.162 134.235 146.381 133.913 145.798 133.331C145.224 132.749 144.894 131.967 144.902 131.147V120.528C144.871 119.685 145.178 118.873 145.76 118.268C146.342 117.67 147.147 117.325 147.982 117.325C148.825 117.325 149.622 117.67 150.204 118.268C150.786 118.873 151.1 119.685 151.07 120.528V128.067H155.406V120.528C155.376 119.685 155.69 118.873 156.272 118.268C156.854 117.67 157.651 117.325 158.494 117.325C159.329 117.325 160.134 117.67 160.716 118.268C161.298 118.873 161.605 119.685 161.574 120.528V131.147C161.582 132.848 160.195 134.235 158.494 134.235Z" fill="#383838"/>
<path d="M135.769 172.554H61.9539C61.1187 172.585 60.3066 172.271 59.7013 171.688C59.0961 171.106 58.7589 170.309 58.7589 169.466C58.7589 168.631 59.0961 167.827 59.7013 167.244C60.3066 166.662 61.1188 166.356 61.9539 166.379H135.769C137.432 166.44 138.749 167.804 138.749 169.466C138.749 171.129 137.432 172.493 135.769 172.554Z" fill="#383838"/>
<path d="M182.569 172.554H163.522C162.687 172.585 161.874 172.271 161.269 171.688C160.664 171.106 160.327 170.309 160.327 169.466C160.327 168.631 160.664 167.827 161.269 167.244C161.874 166.662 162.687 166.356 163.522 166.379H179.481V159.82H6.15421V166.379H34.4795C35.3146 166.356 36.1268 166.662 36.732 167.244C37.3372 167.827 37.6744 168.631 37.6744 169.466C37.6744 170.309 37.3373 171.106 36.732 171.688C36.1267 172.271 35.3145 172.585 34.4795 172.554H3.06493C2.24511 172.554 1.46359 172.232 0.888905 171.65C0.31426 171.068 -0.00753524 170.286 0.000134015 169.474V156.74C0.000134015 155.039 1.36395 153.66 3.06489 153.645H182.569C183.389 153.645 184.17 153.974 184.752 154.556C185.327 155.131 185.656 155.92 185.649 156.74V169.474C185.656 170.286 185.335 171.075 184.752 171.658C184.178 172.232 183.389 172.562 182.569 172.554Z" fill="#383838"/>
<path d="M143.462 191.354C137.784 191.354 132.659 187.937 130.482 182.681C128.306 177.432 129.502 171.387 133.524 167.372C137.539 163.35 143.584 162.139 148.833 164.315C154.089 166.483 157.514 171.601 157.521 177.287C157.521 185.048 151.231 191.346 143.462 191.354ZM143.462 169.417C140.274 169.417 137.401 171.34 136.175 174.282C134.957 177.232 135.631 180.627 137.892 182.879C140.152 185.132 143.546 185.806 146.488 184.58C149.438 183.354 151.354 180.473 151.346 177.286C151.331 172.942 147.814 169.425 143.462 169.417Z" fill="#383838"/>
<path d="M42.1726 191.354C36.4876 191.354 31.3617 187.937 29.1857 182.681C27.0097 177.432 28.2127 171.387 32.2275 167.372C36.2424 163.35 42.2876 162.139 47.5437 164.315C52.7921 166.483 56.2247 171.601 56.2323 177.287H56.2246C56.2323 185.048 49.9343 191.346 42.1726 191.354ZM42.1726 169.417C38.9853 169.417 36.1043 171.34 34.8863 174.29C33.668 177.232 34.3423 180.627 36.6025 182.879C38.8628 185.132 42.257 185.806 45.1992 184.58C48.149 183.354 50.0645 180.473 50.0569 177.286C50.0416 172.942 46.5169 169.425 42.1726 169.417Z" fill="#383838"/>
<path d="M118.208 63.447C116.591 63.47 115.228 62.2594 115.074 60.6504C114.921 59.0414 116.032 57.5856 117.618 57.3175L153.844 50.2531C155.514 49.9237 157.139 51.0117 157.461 52.6897C157.79 54.3599 156.694 55.9766 155.024 56.3062L118.798 63.3705H118.806C118.607 63.4165 118.407 63.4394 118.208 63.447Z" fill="#383838"/>
<path d="M97.5286 67.4779C95.912 67.5085 94.5406 66.2903 94.3872 64.6889C94.2339 63.0799 95.3449 61.6241 96.9386 61.3484L105.78 59.6244H105.773C107.443 59.295 109.067 60.3906 109.389 62.0609C109.719 63.7389 108.623 65.3556 106.953 65.6851L98.1186 67.409V67.4014C97.9271 67.4474 97.7279 67.4703 97.521 67.478L97.5286 67.4779Z" fill="#383838"/>
<path d="M69.9075 10.2581C68.3368 10.2505 67.0189 9.0629 66.8504 7.50761C66.6819 5.94457 67.7086 4.50424 69.2332 4.15942L87.5298 0.0909827C88.3343 -0.108222 89.1924 0.0220241 89.8972 0.458754C90.6098 0.89549 91.1078 1.60038 91.2917 2.41253C91.4756 3.23236 91.3147 4.08282 90.8626 4.78C90.4029 5.47724 89.6904 5.95993 88.8706 6.12083L70.597 10.1893C70.3671 10.2352 70.1374 10.2581 69.9075 10.2581Z" fill="#383838"/>
<path d="M53.0528 14.0129C51.4821 14.0129 50.1642 12.8253 49.9957 11.27C49.8195 9.70698 50.8462 8.26665 52.3785 7.91418L56.5771 6.97943H56.5695C57.3816 6.78023 58.2398 6.91814 58.9446 7.35487C59.6494 7.79161 60.1552 8.4965 60.3314 9.30865C60.5153 10.1208 60.362 10.9713 59.9023 11.6685C59.4503 12.3657 58.7301 12.8484 57.9103 13.0093L53.7116 13.944L53.7193 13.9364C53.4971 13.99 53.275 14.0129 53.0528 14.0129Z" fill="#383838"/>
</svg>
